<svg width="31" height="40" viewBox="0 0 31 40" fill="none" xmlns="http://www.w3.org/2000/svg">
<path d="M0.673852 1.99611C0.673852 1.22269 1.33917 0.557373 2.11258 0.557373H16.9572C21.7225 0.557373 25.548 2.05432 27.8682 4.38289C29.6978 6.21248 30.8039 8.81549 30.8039 11.5848V11.6929C30.8039 18.1714 25.9804 21.8888 19.4438 22.7703L30.4712 37.066C30.7457 37.3987 30.912 37.7313 30.912 38.064C30.912 38.8374 30.1885 39.5609 29.4151 39.5609C28.8579 39.5609 28.4753 39.2283 28.1427 38.7875L16.2337 23.2776H3.54299V38.1222C3.54299 38.8956 2.87768 39.5609 2.10426 39.5609C1.33084 39.5609 0.665527 38.8956 0.665527 38.1222V1.99611H0.673852ZM16.6329 20.6663C23.1113 20.6663 27.9347 17.3979 27.9347 11.8011V11.6929C27.9347 6.48692 23.8348 3.21861 16.7992 3.21861H3.55962V20.6746H16.6329V20.6663Z" fill="black"/>
</svg>
