<svg width="37" height="40" viewBox="0 0 37 40" fill="none" xmlns="http://www.w3.org/2000/svg">
<path d="M0.17606 1.91307C0.17606 1.13965 0.841362 0.474365 1.61478 0.474365H1.88922C2.49631 0.474365 2.94539 0.807018 3.32794 1.306L18.4553 23.5771L33.5827 1.306C33.9154 0.807018 34.4144 0.474365 35.0215 0.474365H35.2959C36.0693 0.474365 36.7346 1.13965 36.7346 1.91307V38.2055C36.7346 38.9789 36.0693 39.6442 35.2959 39.6442C34.5225 39.6442 33.8571 38.9789 33.8571 38.2055V5.73859L19.6196 26.4545C19.287 26.9535 18.8961 27.1781 18.3971 27.1781C17.8981 27.1781 17.5073 26.9535 17.1746 26.4545L2.93707 5.73859V38.2637C2.93707 39.0372 2.32998 39.6525 1.54825 39.6525C0.77483 39.6525 0.159424 39.0455 0.159424 38.2637V1.91307H0.17606Z" fill="black"/>
</svg>
