<svg width="36" height="41" viewBox="0 0 36 41" fill="none" xmlns="http://www.w3.org/2000/svg">
<path d="M0.896973 20.1671V20.059C0.896973 9.58871 8.48976 0 20.0661 0C25.8792 0 29.7047 1.60503 33.3056 4.32447C33.6383 4.59891 33.8629 4.9898 33.8629 5.48878C33.8629 6.26219 33.1975 6.92748 32.4241 6.92748C32.1996 6.92748 31.8669 6.81937 31.5343 6.53662C28.5404 4.20805 25.2721 2.60301 19.8997 2.60301C10.4774 2.60301 3.89083 10.5783 3.89083 19.9425V20.059C3.89083 30.0884 10.153 37.5648 20.5152 37.5648C25.4467 37.5648 30.0457 35.519 32.8732 33.1322V21.9967H20.7979C20.0744 21.9967 19.4673 21.3896 19.4673 20.6661C19.4673 19.9425 20.0744 19.3354 20.7979 19.3354H34.2038C34.9772 19.3354 35.6425 20.0007 35.6425 20.7742V33.4649C35.6425 34.0221 35.2517 34.6292 34.6446 35.1281C30.9854 37.9557 26.1703 40.1179 20.4071 40.1179C8.15711 40.1179 0.896973 31.0864 0.896973 20.1671Z" fill="#D5A368"/>
</svg>
