<svg width="39" height="40" viewBox="0 0 39 40" fill="none" xmlns="http://www.w3.org/2000/svg">
<path d="M1.16716 37.648L17.7333 1.7465C18.1241 0.914871 18.673 0.357666 19.671 0.357666H19.7791C20.777 0.357666 21.3259 0.914871 21.7168 1.7465L38.2247 37.5399C38.391 37.8726 38.4492 38.147 38.4492 38.4298C38.4492 39.1533 37.8421 39.7604 37.0604 39.7604C36.3951 39.7604 35.8961 39.2614 35.6217 38.6543L31.081 28.6831L19.671 3.64262L3.66205 38.7125C3.38762 39.3778 2.93855 39.7687 2.27324 39.7687C1.54972 39.7687 0.942627 39.2115 0.942627 38.5462C0.942627 38.3134 1.00083 37.9807 1.16716 37.648Z" fill="black"/>
</svg>
