<svg width="39" height="40" viewBox="0 0 39 40" fill="none" xmlns="http://www.w3.org/2000/svg">
<path d="M0.855905 37.648L17.422 1.7465C17.8129 0.914871 18.3618 0.357666 19.3597 0.357666H19.4678C20.4658 0.357666 21.0147 0.914871 21.4055 1.7465L37.9134 37.5399C38.0798 37.8726 38.138 38.147 38.138 38.4298C38.138 39.1533 37.5309 39.7604 36.7491 39.7604C36.0838 39.7604 35.5849 39.2614 35.3104 38.6543L30.7697 28.6831L19.3597 3.64262L3.3508 38.7125C3.07636 39.3778 2.62727 39.7687 1.96196 39.7687C1.23844 39.7687 0.631348 39.2115 0.631348 38.5462C0.639664 38.3134 0.689578 37.9807 0.855905 37.648Z" fill="#D5A368"/>
</svg>
