<svg width="29" height="40" viewBox="0 0 29 40" fill="none" xmlns="http://www.w3.org/2000/svg">
<path d="M0.287598 38.006V2.1045C0.287598 1.33109 0.952938 0.665771 1.72636 0.665771H26.7668C27.4903 0.665771 28.0974 1.27287 28.0974 1.99639C28.0974 2.71991 27.4903 3.327 26.7668 3.327H3.16506V18.5625H24.2719C24.9954 18.5625 25.6025 19.1696 25.6025 19.8931C25.6025 20.6166 24.9954 21.2237 24.2719 21.2237H3.16506V36.7919H27.0412C27.7648 36.7919 28.3718 37.399 28.3718 38.1225C28.3718 38.846 27.7648 39.4531 27.0412 39.4531H1.71803C0.95293 39.4531 0.287598 38.7878 0.287598 38.006Z" fill="#D5A368"/>
</svg>
