<svg width="29" height="40" viewBox="0 0 29 40" fill="none" xmlns="http://www.w3.org/2000/svg">
<path d="M1.18512 34.5722C0.910683 34.3477 0.62793 33.9651 0.62793 33.4661C0.62793 32.6927 1.29324 32.0274 2.06666 32.0274C2.45753 32.0274 2.79017 32.1937 3.0064 32.3601C6.8818 35.8529 10.7655 37.3998 16.0797 37.3998C21.8928 37.3998 25.8846 34.1314 25.8846 29.6988V29.5907C25.8846 25.4908 23.7224 23.1123 14.9154 21.3326C5.60941 19.4448 1.84212 16.2929 1.84212 10.4216V10.3135C1.84212 4.55028 7.10635 0.117676 14.3083 0.117676C19.5143 0.117676 23.1153 1.4483 26.6663 4.10952C26.9408 4.33407 27.2734 4.71661 27.2734 5.2738C27.2734 6.04722 26.6081 6.71254 25.8347 6.71254C25.502 6.71254 25.1694 6.6044 24.895 6.37986C21.5185 3.77686 18.1338 2.72069 14.2002 2.72069C8.49517 2.72069 4.72788 5.98901 4.72788 10.0307V10.1389C4.72788 14.2388 6.83191 16.7337 16.0298 18.6132C25.0031 20.4428 28.7704 23.6529 28.7704 29.308V29.4161C28.7704 35.6783 23.398 39.9944 15.9133 39.9944C10.1085 40.0028 5.56782 38.1732 1.18512 34.5722Z" fill="black"/>
</svg>
